<svg version="1.1" xmlns="http://www.w3.org/2000/svg" viewBox="0 0 1417.3676470588234 198" width="1417.3676470588234" height="198">
  <!-- svg-source:excalidraw -->
  
  <defs>
    <style class="style-fonts">
      @font-face {
        font-family: "Virgil";
        src: url("https://excalidraw.com/Virgil.woff2");
      }
      @font-face {
        font-family: "Cascadia";
        src: url("https://excalidraw.com/Cascadia.woff2");
      }
      @font-face {
        font-family: "Assistant";
        src: url("https://excalidraw.com/Assistant-Regular.woff2");
      }
    </style>
    
  </defs>
  <rect x="0" y="0" width="1417.3676470588234" height="198" fill="#ffffff"></rect><g stroke-linecap="round" transform="translate(213.36764705882342 19) rotate(0 116 83)"><path d="M32 0 C74 2.56, 119.43 0.05, 200 0 M32 0 C81.84 -0.56, 130.83 -0.94, 200 0 M200 0 C220.84 1.3, 231.5 12.15, 232 32 M200 0 C222.89 -1.16, 229.8 10.15, 232 32 M232 32 C232.47 61.86, 231.92 90.21, 232 134 M232 32 C231.69 57.13, 232.52 82.3, 232 134 M232 134 C231.01 153.93, 222.67 164.53, 200 166 M232 134 C231.1 153.64, 219.38 164.8, 200 166 M200 166 C163.16 163.85, 127.74 163.52, 32 166 M200 166 C150.55 166.14, 99.31 166.86, 32 166 M32 166 C9.23 167.14, 1.91 156.57, 0 134 M32 166 C12.38 165.55, 1.36 155.97, 0 134 M0 134 C0.27 111.73, 0.83 93.06, 0 32 M0 134 C-1 94.95, -0.89 54.48, 0 32 M0 32 C0.34 11.02, 9.31 1.26, 32 0 M0 32 C1.53 9.01, 8.69 -0.24, 32 0" stroke="#1e1e1e" stroke-width="2" fill="none"></path></g><g transform="translate(265.00097835765155 89.5) rotate(0 64.36666870117188 12.5)"><text x="64.36666870117188" y="0" font-family="Virgil, Segoe UI Emoji" font-size="20px" fill="#1e1e1e" text-anchor="middle" style="white-space: pre;" direction="ltr" dominant-baseline="text-before-edge">Preprocessing</text></g><g stroke-linecap="round" transform="translate(708.3676470588234 17) rotate(0 116 82.5)"><path d="M32 0 C71.49 0.51, 114.57 2, 200 0 M32 0 C94.12 0.32, 154.83 0.69, 200 0 M200 0 C221.69 -1.36, 233.26 12, 232 32 M200 0 C219.68 -1.97, 231.76 12.49, 232 32 M232 32 C231.13 57.01, 229.94 82.43, 232 133 M232 32 C233.05 62.89, 231.87 91.67, 232 133 M232 133 C232.31 155.92, 223.07 163.81, 200 165 M232 133 C232 154.56, 220.41 165.63, 200 165 M200 165 C151.94 161.88, 101.66 162.73, 32 165 M200 165 C160.52 165.58, 121.36 165.6, 32 165 M32 165 C9.36 164.57, 0.21 155.26, 0 133 M32 165 C12.7 163.44, -0.74 154.28, 0 133 M0 133 C-0.82 98.06, -0.33 60.46, 0 32 M0 133 C1.08 95.4, 1.33 56.54, 0 32 M0 32 C1.72 10.89, 12.24 -0.36, 32 0 M0 32 C2.16 8.98, 10.46 0.24, 32 0" stroke="#1e1e1e" stroke-width="2" fill="none"></path></g><g transform="translate(756.6759814094094 87) rotate(0 67.69166564941406 12.5)"><text x="67.69166564941406" y="0" font-family="Virgil, Segoe UI Emoji" font-size="20px" fill="#1e1e1e" text-anchor="middle" style="white-space: pre;" direction="ltr" dominant-baseline="text-before-edge">Trained model</text></g><g stroke-linecap="round" transform="translate(1174.3676470588234 26) rotate(0 116.5 81)"><path d="M32 0 C89.59 1.57, 144.24 -0.16, 201 0 M32 0 C83.26 1.63, 132.66 1.65, 201 0 M201 0 C223.67 1.24, 233.89 10.89, 233 32 M201 0 C222.83 0.68, 233.45 10.51, 233 32 M233 32 C232.71 51.43, 231.27 76.5, 233 130 M233 32 C233.71 65.27, 232.5 98.6, 233 130 M233 130 C232.89 153.22, 223.97 163.68, 201 162 M233 130 C231.25 151.29, 221.72 164.08, 201 162 M201 162 C133.25 159.98, 68.17 161.43, 32 162 M201 162 C143.74 161.54, 86.7 162.21, 32 162 M32 162 C9.62 161.27, -1.86 151, 0 130 M32 162 C11.98 161.32, 1.55 149.57, 0 130 M0 130 C-0.35 93.66, 0.61 56.54, 0 32 M0 130 C-0.55 94.5, -1.63 59.91, 0 32 M0 32 C0.45 11.67, 9.78 -0.54, 32 0 M0 32 C-1.73 11.06, 8.41 -0.24, 32 0" stroke="#1e1e1e" stroke-width="2" fill="none"></path></g><g transform="translate(1216.7759798835305 94.5) rotate(0 74.09166717529297 12.5)"><text x="74.09166717529297" y="0" font-family="Virgil, Segoe UI Emoji" font-size="20px" fill="#1e1e1e" text-anchor="middle" style="white-space: pre;" direction="ltr" dominant-baseline="text-before-edge">Model inference</text></g><g stroke-linecap="round"><g transform="translate(446.3676470588234 103.31048901820071) rotate(0 128 -2.6254370158521283)"><path d="M0.64 1.01 C43.1 0.42, 212.92 -3.05, 255.41 -4.22 M-0.48 0.49 C42.31 -0.35, 215.29 -4.87, 257.81 -5.8" stroke="#1e1e1e" stroke-width="2" fill="none"></path></g><g transform="translate(446.3676470588234 103.31048901820071) rotate(0 128 -2.6254370158521283)"><path d="M234.53 3.32 C244.55 -1.05, 252.88 -4.01, 257.81 -5.8 M234.53 3.32 C240.59 1.87, 246.3 0.09, 257.81 -5.8" stroke="#1e1e1e" stroke-width="2" fill="none"></path></g><g transform="translate(446.3676470588234 103.31048901820071) rotate(0 128 -2.6254370158521283)"><path d="M234.11 -13.78 C244.19 -12.05, 252.66 -8.93, 257.81 -5.8 M234.11 -13.78 C240.21 -11.2, 246.02 -8.95, 257.81 -5.8" stroke="#1e1e1e" stroke-width="2" fill="none"></path></g></g><mask></mask><g stroke-linecap="round"><g transform="translate(941.3676470588234 102.90807252911844) rotate(0 116.00000000000011 -1.2534412528256098)"><path d="M0.89 -0.96 C39.5 -1.59, 194.09 -2.96, 232.74 -3.29 M-0.1 1.15 C38.32 0.62, 193.43 -1.66, 232.18 -2.16" stroke="#1e1e1e" stroke-width="2" fill="none"></path></g><g transform="translate(941.3676470588234 102.90807252911844) rotate(0 116.00000000000011 -1.2534412528256098)"><path d="M208.8 6.72 C216.27 4.32, 225.67 0.87, 232.18 -2.16 M208.8 6.72 C215.63 4.24, 222.13 2.89, 232.18 -2.16" stroke="#1e1e1e" stroke-width="2" fill="none"></path></g><g transform="translate(941.3676470588234 102.90807252911844) rotate(0 116.00000000000011 -1.2534412528256098)"><path d="M208.57 -10.38 C216.2 -6.13, 225.68 -2.91, 232.18 -2.16 M208.57 -10.38 C215.56 -8.33, 222.12 -5.15, 232.18 -2.16" stroke="#1e1e1e" stroke-width="2" fill="none"></path></g></g><mask></mask><g transform="translate(10 90) rotate(0 92.93382352941171 16.49999999999997)"><text x="0" y="0" font-family="Virgil, Segoe UI Emoji" font-size="13.19999999999998px" fill="#1e1e1e" text-anchor="start" style="white-space: pre;" direction="ltr" dominant-baseline="text-before-edge">Nuages de points annotés : </text><text x="0" y="16.499999999999975" font-family="Virgil, Segoe UI Emoji" font-size="13.19999999999998px" fill="#1e1e1e" text-anchor="start" style="white-space: pre;" direction="ltr" dominant-baseline="text-before-edge">.las, .laz, .xyz, .ply</text></g><g transform="translate(503.3176440070656 59) rotate(0 76.3499984741211 16.99999999999997)"><text x="0" y="0" font-family="Virgil, Segoe UI Emoji" font-size="13.599999999999985px" fill="#1e1e1e" text-anchor="start" style="white-space: pre;" direction="ltr" dominant-baseline="text-before-edge">2 fichiers de KD-trees</text><text x="0" y="16.999999999999982" font-family="Virgil, Segoe UI Emoji" font-size="13.599999999999985px" fill="#1e1e1e" text-anchor="start" style="white-space: pre;" direction="ltr" dominant-baseline="text-before-edge">Un fichier .ply</text></g><g transform="translate(957.0176485847023 10) rotate(0 88.85832977294922 42.49999999999994)"><text x="0" y="0" font-family="Virgil, Segoe UI Emoji" font-size="13.599999999999985px" fill="#1e1e1e" text-anchor="start" style="white-space: pre;" direction="ltr" dominant-baseline="text-before-edge">Modèle entraîné .tar</text><text x="0" y="16.999999999999982" font-family="Virgil, Segoe UI Emoji" font-size="13.599999999999985px" fill="#1e1e1e" text-anchor="start" style="white-space: pre;" direction="ltr" dominant-baseline="text-before-edge">Paramètres</text><text x="0" y="33.999999999999964" font-family="Virgil, Segoe UI Emoji" font-size="13.599999999999985px" fill="#1e1e1e" text-anchor="start" style="white-space: pre;" direction="ltr" dominant-baseline="text-before-edge">Métriques</text><text x="0" y="50.99999999999994" font-family="Virgil, Segoe UI Emoji" font-size="13.599999999999985px" fill="#1e1e1e" text-anchor="start" style="white-space: pre;" direction="ltr" dominant-baseline="text-before-edge">Nuage de points annoté</text><text x="0" y="67.99999999999993" font-family="Virgil, Segoe UI Emoji" font-size="13.599999999999985px" fill="#1e1e1e" text-anchor="start" style="white-space: pre;" direction="ltr" dominant-baseline="text-before-edge">(validation) au format .ply</text></g></svg>